Coordinates
version=1
nRows=14
nColumns=36
inDegrees=yes

Units are S.I. units (second, meters, Newtons, ...)
If the header above contains a line with 'inDegrees', this indicates whether rotational values are in degrees (yes) or radians (no).

endheader
time	pelvis_tilt	pelvis_list	pelvis_rotation	pelvis_tx	pelvis_ty	pelvis_tz	hip_flexion_r	hip_adduction_r	hip_rotation_r	knee_angle_r	knee_angle_r_beta	ankle_angle_r	subtalar_angle_r	mtp_angle_r	hip_flexion_l	hip_adduction_l	hip_rotation_l	knee_angle_l	knee_angle_l_beta	ankle_angle_l	subtalar_angle_l	mtp_angle_l	lumbar_extension	lumbar_bending	lumbar_rotation	arm_flex_r	arm_add_r	arm_rot_r	elbow_flex_r	pro_sup_r	arm_flex_l	arm_add_l	arm_rot_l	elbow_flex_l	pro_sup_l
      0.00000000	      5.21788964	     -0.41146840	      2.74302820	     -0.89546816	      1.25979071	     -0.08095992	     -9.19930794	      1.02256917	     -1.52257177	      6.54422339	      0.11421825	      8.56060307	    -16.66916988	     -6.25442196	     -9.18825954	     -3.10073709	      3.58896366	      3.89657154	      0.06800800	     12.86005662	     -3.86107566	     -6.25442196	    -12.66282447	      1.95491794	      1.41043182	      6.82104711	     -5.56604955	     19.63307214	     22.44429255	     72.56369234	      5.00942303	     -6.83333091	     22.68047316	     22.49505801	     64.47297464
      0.00416670	      4.86252585	     -0.53833143	      2.11822789	     -0.89629886	      1.25596213	     -0.08078522	     -8.02815610	      1.18401385	     -1.34341174	      8.21781102	      0.14342786	     12.16337789	    -14.35544268	     -6.91289351	     -8.27465928	     -2.56453479	      5.48311706	      4.64618584	      0.08109124	     12.32457793	     -5.36539460	     -6.91289351	    -12.04984819	      2.47476486	      1.72470767	      6.58359783	     -4.76306546	     13.30121781	     22.68339724	     78.07397430	      4.56382778	     -5.90420833	     17.87768209	     22.78772342	     67.58964021
      0.00833330	      4.61632738	     -0.05468220	      1.42235924	     -0.89633412	      1.25585180	     -0.07935667	     -7.61340799	      0.42097877	     -2.03632683	      8.43368076	      0.14719550	     13.24941494	    -13.25837914	     -7.02132507	     -7.92973366	     -2.01563301	      5.22016161	      5.06541099	      0.08840810	     12.19716855	     -5.89076412	     -7.02132507	    -11.80999356	      1.65045938	      2.30852724	      6.39057299	     -3.89290923	     10.85613946	     23.01278918	     76.30678180	      4.79846935	     -5.86928583	     16.47508752	     22.72970227	     66.75053611
      0.01250000	      5.82383746	      0.16730954	      1.35837942	     -0.89824738	      1.25524157	     -0.07892179	     -8.83476058	      0.00694224	     -2.01356575	      8.58562224	      0.14984738	     13.79414836	    -12.78297458	     -7.07587077	     -9.69022122	     -1.80126130	      6.08387720	      4.19596994	      0.07323349	     11.73790913	     -6.61564543	     -7.07587077	    -13.43184658	      1.24993097	      2.60799684	      6.79165058	     -3.66376486	      9.97770336	     23.19431828	     75.62528641	      5.47185218	     -6.11922823	     16.25824280	     22.52967758	     66.59458161
      0.01666670	      6.11358119	      0.15376994	      1.14224312	     -0.89766959	      1.25946408	     -0.07849307	     -9.23960027	     -0.01827570	     -1.90998813	      8.34040036	      0.14556745	     13.72466616	    -12.33097868	     -7.17063311	    -10.46995782	     -1.77475467	      6.24738598	      3.41915352	      0.05967549	     11.40083772	     -6.71281781	     -7.17063311	    -13.71327924	      1.19541621	      3.12138862	      6.61577396	     -3.55649319	      9.74695844	     23.39769626	     73.47886178	      5.63714204	     -6.11342034	     16.17576754	     22.62525722	     65.76681868
      0.02083330	      6.66464623	      0.25334691	      1.17302725	     -0.89914770	      1.25688965	     -0.07834104	     -9.56008988	     -0.17495224	     -2.14457486	      8.91204387	      0.15554451	     14.32969288	    -11.62776964	     -7.18934291	    -11.14480277	     -1.66235679	      6.99114143	      3.19343613	      0.05573597	     10.92237668	     -7.75439055	     -7.18934291	    -14.53671711	      1.04387295	      3.30668595	      6.73957912	     -3.76236057	     11.28453380	     23.74864917	     74.67642889	      6.20712991	     -6.53271973	     18.76144618	     22.64514339	     67.67773887
      0.02500000	      6.83426935	      0.29491652	      1.00883298	     -0.89886238	      1.25725719	     -0.07809869	     -9.71046644	     -0.27081690	     -1.87652797	      8.96229006	      0.15642147	     14.41653098	    -11.52635316	     -7.25530847	    -11.42261250	     -1.57614693	      7.24527445	      3.01505594	      0.05262265	     10.70698078	     -8.24878349	     -7.25530847	    -14.69476808	      1.00747545	      3.59506551	      6.87269720	     -3.94497967	     12.56080978	     23.63737082	     75.07967984	      6.43493743	     -6.57363781	     19.59796854	     22.65957653	     69.05927182
      0.02916670	      6.89086967	      0.27741344	      0.92102407	     -0.89936325	      1.26125450	     -0.07804445	     -9.81807823	     -0.21275254	     -1.83342878	      8.65646739	      0.15108386	     14.24656869	    -11.48047554	     -7.31883599	    -11.45926128	     -1.57351211	      7.47330507	      3.07596093	      0.05368565	     10.39727408	     -9.05255153	     -7.31883599	    -14.80906954	      1.05615311	      3.78244677	      7.00508458	     -4.23534600	     13.54335693	     23.80287594	     73.99104406	      6.57363612	     -6.60710523	     20.18491498	     22.92584433	     68.87660106
      0.03333330	      7.01247259	      0.32452316	      0.78860150	     -0.89911544	      1.25754446	     -0.07764290	     -9.93729336	     -0.21172006	     -1.81155084	      8.51371140	      0.14859230	     14.15626322	    -11.77390458	     -7.31718232	    -11.46022982	     -1.50603347	      7.34354975	      3.34002745	      0.05829448	     10.49422308	     -9.11063702	     -7.31718232	    -14.92863177	      1.00750426	      3.90509326	      7.12577055	     -4.23949112	     14.05414726	     23.57345982	     73.64981043	      6.71359373	     -6.52215195	     20.37632716	     22.82545329	     68.87606943
      0.03750000	      7.02949547	      0.29649204	      0.82708528	     -0.89974820	      1.25770080	     -0.07796053	    -10.04563595	     -0.19118165	     -2.10439700	      8.40848555	      0.14675576	     14.17718667	    -11.48695787	     -7.34354502	    -11.35616575	     -1.52232040	      7.54859314	      3.56287879	      0.06218397	     10.42824562	     -9.50057398	     -7.34354502	    -14.83128163	      1.03798323	      3.93184186	      7.16561117	     -4.41272049	     14.44918821	     23.67103461	     72.48149643	      6.63627345	     -6.53783019	     20.51191016	     22.74524396	     68.21847038
      0.04166670	      7.10075722	      0.28141776	      0.90799779	     -0.89943386	      1.25438165	     -0.07803382	    -10.13912588	     -0.15836048	     -2.14956225	      8.54622060	      0.14915969	     14.36043705	    -11.42509308	     -7.40774398	    -11.32053147	     -1.55081752	      7.57928906	      3.74493529	      0.06536145	     10.55983927	     -9.55589376	     -7.40774398	    -14.89436242	      1.07788922	      3.90220639	      7.14404574	     -4.62878422	     15.19292508	     23.66342413	     76.35965354	      6.73340571	     -6.76834280	     21.23683695	     22.51327616	     73.03863904
      0.04583330	      7.11065517	      0.25304773	      0.98095375	     -0.89970857	      1.25854784	     -0.07809635	    -10.20555114	     -0.11068949	     -2.13150443	      8.58846742	      0.14989703	     14.36849606	    -11.41187878	     -7.40803477	    -11.31384862	     -1.59062516	      7.53788540	      3.88448594	      0.06779707	     10.41230398	     -9.56517528	     -7.40803477	    -14.90282506	      1.07862139	      3.81797281	      7.05341748	     -4.63133721	     15.21864206	     23.65964356	     76.36963901	      6.67760567	     -6.84019668	     21.24938830	     22.43943373	     73.04798075
      0.05000000	      7.16690372	      0.27700363	      0.97474193	     -0.89939486	      1.25858813	     -0.07817449	    -10.31254800	     -0.14336962	     -2.13471988	      8.56815495	      0.14954251	     14.28281739	    -11.39696440	     -7.41664765	    -11.23964222	     -1.59381663	      7.65822792	      4.10335819	      0.07161711	     10.17446670	    -10.03013231	     -7.41664765	    -15.00448263	      1.06681637	      3.65869817	      7.09532360	     -4.65977139	     15.58839285	     23.66997588	     75.59366478	      6.68269191	     -6.85977743	     21.41138147	     22.15129639	     72.39881265
      0.05416670	      7.31314742	      0.23268135	      0.90653057	     -0.89402017	      1.25492988	     -0.08291047	    -10.65720332	     -0.19914601	     -1.99367607	      8.51343135	      0.14858741	     14.03423943	    -11.50685237	     -7.42596164	    -11.55319391	     -1.56566488	      7.48725471	      4.01647467	      0.07010071	     10.04571734	    -10.02768051	     -7.42596164	    -14.95538911	      1.21234290	      3.59437422	      6.86390197	     -4.91542402	     16.24904554	     23.79153701	     74.44086802	      6.41301660	     -6.77139622	     21.82522447	     22.08171251	     71.47659121
